<svg preserveAspectRatio="none" overflow="visible" style="display: block;" width="163.28" height="6.56" viewBox="0 0 163.28 6.56" fill="none" xmlns="http://www.w3.org/2000/svg">
<path id="Line 22" d="M0 3.28C0 5.09149 1.46851 6.56 3.28 6.56C5.09149 6.56 6.56 5.09149 6.56 3.28C6.56 1.46851 5.09149 0 3.28 0C1.46851 0 0 1.46851 0 3.28ZM3.28 3.28V3.895H4.28V3.28V2.665H3.28V3.28ZM6.28 3.28V3.895H8.28V3.28V2.665H6.28V3.28ZM10.28 3.28V3.895H12.28V3.28V2.665H10.28V3.28ZM14.28 3.28V3.895H16.28V3.28V2.665H14.28V3.28ZM18.28 3.28V3.895H20.28V3.28V2.665H18.28V3.28ZM22.28 3.28V3.895H24.28V3.28V2.665H22.28V3.28ZM26.28 3.28V3.895H28.28V3.28V2.665H26.28V3.28ZM30.28 3.28V3.895H32.28V3.28V2.665H30.28V3.28ZM34.28 3.28V3.895H36.28V3.28V2.665H34.28V3.28ZM38.28 3.28V3.895H40.28V3.28V2.665H38.28V3.28ZM42.28 3.28V3.895H44.28V3.28V2.665H42.28V3.28ZM46.28 3.28V3.895H48.28V3.28V2.665H46.28V3.28ZM50.28 3.28V3.895H52.28V3.28V2.665H50.28V3.28ZM54.28 3.28V3.895H56.28V3.28V2.665H54.28V3.28ZM58.28 3.28V3.895H60.28V3.28V2.665H58.28V3.28ZM62.28 3.28V3.895H64.28V3.28V2.665H62.28V3.28ZM66.28 3.28V3.895H68.28V3.28V2.665H66.28V3.28ZM70.28 3.28V3.895H72.28V3.28V2.665H70.28V3.28ZM74.28 3.28V3.895H76.28V3.28V2.665H74.28V3.28ZM78.28 3.28V3.895H80.28V3.28V2.665H78.28V3.28ZM82.28 3.28V3.895H84.28V3.28V2.665H82.28V3.28ZM86.28 3.28V3.895H88.28V3.28V2.665H86.28V3.28ZM90.28 3.28V3.895H92.28V3.28V2.665H90.28V3.28ZM94.28 3.28V3.895H96.28V3.28V2.665H94.28V3.28ZM98.28 3.28V3.895H100.28V3.28V2.665H98.28V3.28ZM102.28 3.28V3.895H104.28V3.28V2.665H102.28V3.28ZM106.28 3.28V3.895H108.28V3.28V2.665H106.28V3.28ZM110.28 3.28V3.895H112.28V3.28V2.665H110.28V3.28ZM114.28 3.28V3.895H116.28V3.28V2.665H114.28V3.28ZM118.28 3.28V3.895H120.28V3.28V2.665H118.28V3.28ZM122.28 3.28V3.895H124.28V3.28V2.665H122.28V3.28ZM126.28 3.28V3.895H128.28V3.28V2.665H126.28V3.28ZM130.28 3.28V3.895H132.28V3.28V2.665H130.28V3.28ZM134.28 3.28V3.895H136.28V3.28V2.665H134.28V3.28ZM138.28 3.28V3.895H140.28V3.28V2.665H138.28V3.28ZM142.28 3.28V3.895H144.28V3.28V2.665H142.28V3.28ZM146.28 3.28V3.895H148.28V3.28V2.665H146.28V3.28ZM150.28 3.28V3.895H152.28V3.28V2.665H150.28V3.28ZM154.28 3.28V3.895H156.28V3.28V2.665H154.28V3.28ZM158.28 3.28V3.895H160.28V3.28V2.665H158.28V3.28ZM162.28 3.28V3.895H163.28V3.28V2.665H162.28V3.28Z" fill="#B6C0FA"/>
</svg>
