<svg width="40" height="40" viewBox="0 0 40 40" fill="none" xmlns="http://www.w3.org/2000/svg">
<path d="M8.16602 31.8332C1.66602 25.3332 1.66602 14.6665 8.16602 8.1665" stroke="#7C86FF" stroke-width="2.5" stroke-linecap="round" stroke-linejoin="round"/>
<path d="M13 27.0002C9.16667 23.1668 9.16667 16.8335 13 12.8335" stroke="#7C86FF" stroke-width="2.5" stroke-linecap="round" stroke-linejoin="round"/>
<path d="M19.9993 23.3332C21.8403 23.3332 23.3327 21.8408 23.3327 19.9998C23.3327 18.1589 21.8403 16.6665 19.9993 16.6665C18.1584 16.6665 16.666 18.1589 16.666 19.9998C16.666 21.8408 18.1584 23.3332 19.9993 23.3332Z" stroke="#7C86FF" stroke-width="2.5" stroke-linecap="round" stroke-linejoin="round"/>
<path d="M27 13C30.8333 16.8333 30.8333 23.1667 27 27.1667" stroke="#7C86FF" stroke-width="2.5" stroke-linecap="round" stroke-linejoin="round"/>
<path d="M31.834 8.1665C38.334 14.6665 38.334 25.1665 31.834 31.6665" stroke="#7C86FF" stroke-width="2.5" stroke-linecap="round" stroke-linejoin="round"/>
</svg>
