<svg preserveAspectRatio="none" overflow="visible" style="display: block;" width="311.504" height="195.126" viewBox="0 0 311.504 195.126" fill="none" xmlns="http://www.w3.org/2000/svg">
<g id="Group 737">
<path id="Line 20" d="M1.4926 193.94C3.2101 195.7 5.71887 195.476 7.09609 193.438C8.47332 191.4 8.19748 188.321 6.47998 186.561C4.76248 184.8 2.25371 185.025 0.876488 187.063C-0.500739 189.1 -0.224896 192.179 1.4926 193.94ZM129.716 5.68093C129.974 5.29884 129.922 4.72152 129.6 4.39142C129.278 4.06132 128.808 4.10346 128.55 4.48555L129.133 5.08324L129.716 5.68093ZM3.98629 190.25L4.56938 190.848L129.716 5.68093L129.133 5.08324L128.55 4.48555L3.4032 189.653L3.98629 190.25Z" fill="#5C66A0"/>
<path id="Line 21" d="M129.769 3.61833C129.308 3.61833 128.934 3.99218 128.934 4.45333C128.934 4.91449 129.308 5.28833 129.769 5.28833V4.45333V3.61833ZM302.597 4.45333C302.597 6.91284 304.591 8.90667 307.051 8.90667C309.51 8.90667 311.504 6.91284 311.504 4.45333C311.504 1.99383 309.51 0 307.051 0C304.591 0 302.597 1.99383 302.597 4.45333ZM129.769 4.45333V5.28833H307.051V4.45333V3.61833H129.769V4.45333Z" fill="#5C66A0"/>
</g>
</svg>
