<svg preserveAspectRatio="none" overflow="visible" style="display: block;" width="131.333" height="62.3333" viewBox="0 0 131.333 62.3333" fill="none" xmlns="http://www.w3.org/2000/svg">
<path id="Rectangle 9386" d="M0 2.66667C0 4.13943 1.19391 5.33333 2.66667 5.33333C4.13943 5.33333 5.33333 4.13943 5.33333 2.66667C5.33333 1.19391 4.13943 0 2.66667 0C1.19391 0 0 1.19391 0 2.66667ZM126 59.6667C126 61.1394 127.194 62.3333 128.667 62.3333C130.139 62.3333 131.333 61.1394 131.333 59.6667C131.333 58.1939 130.139 57 128.667 57C127.194 57 126 58.1939 126 59.6667ZM2.66667 2.66667V3.16667H103.667V2.66667V2.16667H2.66667V2.66667ZM128.667 27.6667H128.167V59.6667H128.667H129.167V27.6667H128.667ZM103.667 2.66667V3.16667C117.198 3.16667 128.167 14.1357 128.167 27.6667H128.667H129.167C129.167 13.5834 117.75 2.16667 103.667 2.16667V2.66667Z" fill="#889AF5"/>
</svg>
