<svg width="20" height="20" viewBox="0 0 20 20" fill="none" xmlns="http://www.w3.org/2000/svg">
<g clip-path="url(#clip0_965_4169)">
<path d="M9.99807 4.16752C9.99905 3.83421 9.93337 3.50408 9.8049 3.19652C9.67642 2.88897 9.48774 2.61021 9.24996 2.37664C9.01217 2.14308 8.73009 1.95942 8.42028 1.83646C8.11048 1.71351 7.77922 1.65375 7.44598 1.6607C7.11274 1.66765 6.78426 1.74116 6.47985 1.87691C6.17544 2.01266 5.90125 2.20792 5.6734 2.45119C5.44556 2.69447 5.26866 2.98084 5.15311 3.29348C5.03756 3.60612 4.9857 3.93871 5.00057 4.27169C4.51074 4.39764 4.05599 4.6334 3.67076 4.96112C3.28553 5.28883 2.97993 5.69992 2.7771 6.16323C2.57427 6.62654 2.47953 7.12993 2.50006 7.63528C2.52058 8.14063 2.65583 8.63468 2.89557 9.08002C2.47405 9.42247 2.14259 9.86271 1.93002 10.3625C1.71744 10.8622 1.6302 11.4063 1.67587 11.9475C1.72154 12.4887 1.89875 13.0105 2.19207 13.4675C2.4854 13.9246 2.88595 14.3031 3.3589 14.57C3.3005 15.0219 3.33535 15.4809 3.46131 15.9188C3.58726 16.3567 3.80165 16.7641 4.09122 17.1158C4.3808 17.4676 4.73941 17.7563 5.14492 17.964C5.55043 18.1717 5.99422 18.2941 6.44888 18.3236C6.90355 18.3531 7.35944 18.2891 7.78839 18.1355C8.21735 17.9819 8.61026 17.742 8.94287 17.4307C9.27548 17.1193 9.54071 16.743 9.7222 16.3251C9.90369 15.9072 9.99758 15.4565 9.99807 15.0009V4.16752Z" stroke="white" stroke-opacity="0.7" stroke-width="1.66667" stroke-linecap="round" stroke-linejoin="round"/>
<path d="M10 4.16752C9.99903 3.83421 10.0647 3.50408 10.1932 3.19652C10.3217 2.88897 10.5103 2.61021 10.7481 2.37664C10.9859 2.14308 11.268 1.95942 11.5778 1.83646C11.8876 1.71351 12.2189 1.65375 12.5521 1.6607C12.8853 1.66765 13.2138 1.74116 13.5182 1.87691C13.8226 2.01266 14.0968 2.20792 14.3247 2.45119C14.5525 2.69447 14.7294 2.98084 14.845 3.29348C14.9605 3.60612 15.0124 3.93871 14.9975 4.27169C15.4873 4.39764 15.9421 4.6334 16.3273 4.96112C16.7125 5.28883 17.0181 5.69992 17.221 6.16323C17.4238 6.62654 17.5185 7.12993 17.498 7.63528C17.4775 8.14063 17.3422 8.63468 17.1025 9.08002C17.524 9.42247 17.8555 9.86271 18.0681 10.3625C18.2806 10.8622 18.3679 11.4063 18.3222 11.9475C18.2765 12.4887 18.0993 13.0105 17.806 13.4675C17.5127 13.9246 17.1121 14.3031 16.6392 14.57C16.6976 15.0219 16.6627 15.4809 16.5368 15.9188C16.4108 16.3567 16.1964 16.7641 15.9069 17.1158C15.6173 17.4676 15.2587 17.7563 14.8532 17.964C14.4477 18.1717 14.0039 18.2941 13.5492 18.3236C13.0945 18.3531 12.6386 18.2891 12.2097 18.1355C11.7807 17.9819 11.3878 17.742 11.0552 17.4307C10.7226 17.1193 10.4574 16.743 10.2759 16.3251C10.0944 15.9072 10.0005 15.4565 10 15.0009V4.16752Z" stroke="white" stroke-opacity="0.7" stroke-width="1.66667" stroke-linecap="round" stroke-linejoin="round"/>
<path d="M12.5 10.8333C11.8004 10.5872 11.1894 10.1392 10.7444 9.54584C10.2994 8.95251 10.0404 8.24056 10 7.5C9.95962 8.24056 9.70056 8.95251 9.25556 9.54584C8.81057 10.1392 8.19963 10.5872 7.5 10.8333" stroke="white" stroke-opacity="0.7" stroke-width="1.66667" stroke-linecap="round" stroke-linejoin="round"/>
<path d="M14.6641 5.41732C14.8657 5.06781 14.9798 4.67467 14.9966 4.27148" stroke="white" stroke-opacity="0.7" stroke-width="1.66667" stroke-linecap="round" stroke-linejoin="round"/>
<path d="M5.00391 4.27148C5.02039 4.6746 5.13418 5.06773 5.33557 5.41732" stroke="white" stroke-opacity="0.7" stroke-width="1.66667" stroke-linecap="round" stroke-linejoin="round"/>
<path d="M2.89844 9.08C3.05089 8.95584 3.21402 8.84541 3.38594 8.75" stroke="white" stroke-opacity="0.7" stroke-width="1.66667" stroke-linecap="round" stroke-linejoin="round"/>
<path d="M16.6133 8.75C16.7852 8.84541 16.9483 8.95584 17.1008 9.08" stroke="white" stroke-opacity="0.7" stroke-width="1.66667" stroke-linecap="round" stroke-linejoin="round"/>
<path d="M4.99854 15.0003C4.42423 15.0006 3.8596 14.8525 3.35938 14.5703" stroke="white" stroke-opacity="0.7" stroke-width="1.66667" stroke-linecap="round" stroke-linejoin="round"/>
<path d="M16.6392 14.5703C16.1389 14.8525 15.5743 15.0006 15 15.0003" stroke="white" stroke-opacity="0.7" stroke-width="1.66667" stroke-linecap="round" stroke-linejoin="round"/>
</g>
<defs>
<clipPath id="clip0_965_4169">
<rect width="20" height="20" fill="white"/>
</clipPath>
</defs>
</svg>
